<?xml version="1.0" encoding="utf-8"?>
<!-- Generator: Adobe Illustrator 27.5.0, SVG Export Plug-In . SVG Version: 6.00 Build 0)  -->
<svg version="1.1" xmlns="http://www.w3.org/2000/svg" xmlns:xlink="http://www.w3.org/1999/xlink" x="0px" y="0px"
	 viewBox="0 0 750 500" style="enable-background:new 0 0 750 500;" xml:space="preserve">
<g id="Background_Simple">
	<g>
		<path style="fill:#92E3A9;" d="M648.438,196.174c-25.624-40.945-60.833-76.728-97.787-104.38
			c-37.389-27.979-81.778-49.046-128.839-52.342c-46.766-3.276-93.68,5.194-136.059,25.416
			c-30.755,14.675-58.237,35.083-78.628,62.626c-3.263,4.408-5.285,8.896-7.484,13.948c-0.383,0.886-0.755,1.777-1.116,2.672
			c-5.415,13.439-9.614,27.298-12.476,41.499c-1.629,8.081-2.315,16.805-5.486,24.485c-9.364,22.677-39.137,29.214-57.966,41.611
			c-45.073,29.677-86.527,81.088-77.763,138.319c0.011,0.069,0.021,0.138,0.032,0.207c7.982,51.22,29.934,56.541,29.934,56.541
			h587.364c0,0,27.938-43.237,26.608-124.391C688.031,277.221,672.208,234.155,648.438,196.174z"/>
		<path style="opacity:0.7;fill:#FFFFFF;" d="M648.438,196.174c-25.624-40.945-60.833-76.728-97.787-104.38
			c-37.389-27.979-81.778-49.046-128.839-52.342c-46.766-3.276-93.68,5.194-136.059,25.416
			c-30.755,14.675-58.237,35.083-78.628,62.626c-3.263,4.408-5.285,8.896-7.484,13.948c-0.383,0.886-0.755,1.777-1.116,2.672
			c-5.415,13.439-9.614,27.298-12.476,41.499c-1.629,8.081-2.315,16.805-5.486,24.485c-9.364,22.677-39.137,29.214-57.966,41.611
			c-45.073,29.677-86.527,81.088-77.763,138.319c0.011,0.069,0.021,0.138,0.032,0.207c7.982,51.22,29.934,56.541,29.934,56.541
			h587.364c0,0,27.938-43.237,26.608-124.391C688.031,277.221,672.208,234.155,648.438,196.174z"/>
	</g>
</g>
<g id="Graphics">
	<g>
		<g>
			<polygon style="fill:none;stroke:#263238;stroke-miterlimit:10;" points="287.653,93.934 265.087,80.906 265.087,106.963 			"/>
		</g>
		<path style="fill:none;stroke:#263238;stroke-miterlimit:10;" d="M302.774,93.661c-0.12,0.4-0.19,0.81-0.19,1.25
			c0,0.14,0.01,0.28,0.02,0.42h-7.52v-1.67H302.774z"/>
		<path style="fill:none;stroke:#263238;stroke-miterlimit:10;" d="M393.484,93.661v1.67h-82.58c0.01-0.14,0.02-0.28,0.02-0.42
			c0-0.44-0.07-0.85-0.19-1.25H393.484z"/>
		<path style="fill:none;stroke:#263238;stroke-miterlimit:10;" d="M310.924,94.911c0,0.14-0.01,0.28-0.02,0.42
			c-0.21,2.11-1.98,3.75-4.15,3.75c-2.16,0-3.94-1.64-4.15-3.75c-0.01-0.14-0.02-0.28-0.02-0.42c0-0.44,0.07-0.85,0.19-1.25
			c0.53-1.69,2.12-2.92,3.98-2.92c1.87,0,3.45,1.23,3.98,2.92C310.854,94.062,310.924,94.471,310.924,94.911z"/>
	</g>
	<g>
		<g>
			<polygon style="fill:none;stroke:#263238;stroke-miterlimit:10;" points="78.447,384.542 78.447,412.922 66.237,404.052 
				60.407,404.052 60.407,393.412 66.237,393.412 			"/>
		</g>
		<g>
			<path style="fill:none;stroke:#263238;stroke-linecap:round;stroke-linejoin:round;stroke-miterlimit:10;" d="M89.129,387.289
				c3.022,2.605,4.935,6.461,4.935,10.764c0,4.761-2.342,8.975-5.937,11.552"/>
			<path style="fill:none;stroke:#263238;stroke-linecap:round;stroke-linejoin:round;stroke-miterlimit:10;" d="M82.666,391.39
				c2.598,1.096,4.421,3.666,4.421,6.663c0,2.994-1.82,5.563-4.415,6.66"/>
		</g>
	</g>
	<g>
		<path style="fill:none;stroke:#263238;stroke-miterlimit:10;" d="M383.528,417.407c3.122,0,5.654-2.531,5.654-5.654v-17.927
			c0-3.123-2.531-5.654-5.654-5.654c-3.123,0-5.654,2.531-5.654,5.654v17.927C377.874,414.876,380.405,417.407,383.528,417.407z"/>
		<path style="fill:none;stroke:#263238;stroke-miterlimit:10;" d="M393.572,411.478v-8.412c0-0.571-0.463-1.034-1.034-1.034
			c-0.571,0-1.034,0.463-1.034,1.034v8.412c0,4.372-3.557,7.929-7.929,7.929s-7.929-3.557-7.929-7.929v-8.412
			c0-0.571-0.463-1.034-1.034-1.034s-1.034,0.463-1.034,1.034v8.412c0,5.164,3.935,9.425,8.963,9.944v9.293h-5.86
			c-0.571,0-1.034,0.463-1.034,1.034c0,0.571,0.463,1.034,1.034,1.034h13.79c0.571,0,1.034-0.463,1.034-1.034
			c0-0.571-0.463-1.034-1.034-1.034h-5.861v-9.293C389.637,420.902,393.572,416.641,393.572,411.478z"/>
	</g>
	<g>
		<path style="fill:none;stroke:#263238;stroke-miterlimit:10;" d="M482.096,77.13c0,7.1-3.32,13.42-8.48,17.5
			c-3.79,3-8.59,4.79-13.8,4.79c-5.21,0-10.01-1.8-13.8-4.8c-5.17-4.08-8.48-10.4-8.48-17.49c0-12.3,9.98-22.28,22.28-22.28
			C472.126,54.85,482.096,64.83,482.096,77.13z"/>
		<circle style="fill:none;stroke:#263238;stroke-miterlimit:10;" cx="459.82" cy="71.395" r="9.177"/>
		<path style="fill:none;stroke:#263238;stroke-miterlimit:10;" d="M473.616,94.63c-3.79,3-8.59,4.79-13.8,4.79
			c-5.21,0-10.01-1.8-13.8-4.8c0.94-6.79,6.76-12.01,13.8-12.01C466.866,82.61,472.686,87.83,473.616,94.63z"/>
	</g>
	<g>
		<path style="fill:none;stroke:#263238;stroke-miterlimit:10;" d="M625.974,398.81c0,6.193-2.896,11.706-7.397,15.265
			c-3.306,2.617-7.493,4.178-12.038,4.178c-4.545,0-8.732-1.57-12.037-4.187c-4.51-3.559-7.397-9.072-7.397-15.256
			c0-10.729,8.705-19.435,19.434-19.435C617.277,379.375,625.974,388.081,625.974,398.81z"/>
		
			<ellipse transform="matrix(0.7071 -0.7071 0.7071 0.7071 -100.8115 544.2339)" style="fill:none;stroke:#263238;stroke-miterlimit:10;" cx="606.543" cy="393.807" rx="8.005" ry="8.005"/>
		<path style="fill:none;stroke:#263238;stroke-miterlimit:10;" d="M618.577,414.075c-3.306,2.617-7.493,4.178-12.038,4.178
			c-4.545,0-8.732-1.57-12.037-4.187c0.82-5.923,5.897-10.476,12.037-10.476C612.689,403.59,617.765,408.143,618.577,414.075z"/>
	</g>
	<g>
		<path style="fill:none;stroke:#263238;stroke-miterlimit:10;" d="M678.822,398.81c0,6.193-2.896,11.706-7.397,15.265
			c-3.306,2.617-7.493,4.178-12.038,4.178c-4.545,0-8.732-1.57-12.037-4.187c-4.51-3.559-7.397-9.072-7.397-15.256
			c0-10.729,8.705-19.435,19.435-19.435C670.125,379.375,678.822,388.081,678.822,398.81z"/>
		
			<ellipse transform="matrix(0.2305 -0.9731 0.9731 0.2305 124.1739 944.6459)" style="fill:none;stroke:#263238;stroke-miterlimit:10;" cx="659.391" cy="393.807" rx="8.005" ry="8.005"/>
		<path style="fill:none;stroke:#263238;stroke-miterlimit:10;" d="M671.425,414.075c-3.306,2.617-7.493,4.178-12.038,4.178
			c-4.545,0-8.732-1.57-12.037-4.187c0.82-5.923,5.897-10.476,12.037-10.476C665.537,403.59,670.614,408.143,671.425,414.075z"/>
	</g>
	<g>
		<path style="fill:none;stroke:#263238;stroke-miterlimit:10;" d="M104.594,186.338c0,6.193-2.896,11.706-7.397,15.265
			c-3.306,2.617-7.493,4.178-12.037,4.178c-4.545,0-8.732-1.57-12.038-4.187c-4.51-3.559-7.397-9.072-7.397-15.256
			c0-10.729,8.705-19.434,19.435-19.434C95.897,166.903,104.594,175.609,104.594,186.338z"/>
		
			<ellipse transform="matrix(0.1602 -0.9871 0.9871 0.1602 -107.4721 236.3518)" style="fill:none;stroke:#263238;stroke-miterlimit:10;" cx="85.163" cy="181.335" rx="8.005" ry="8.005"/>
		<path style="fill:none;stroke:#263238;stroke-miterlimit:10;" d="M97.197,201.603c-3.306,2.617-7.493,4.178-12.037,4.178
			c-4.545,0-8.732-1.57-12.038-4.187c0.82-5.923,5.897-10.476,12.038-10.476C91.309,191.118,96.386,195.671,97.197,201.603z"/>
	</g>
</g>
<g id="Floor">
	<g>
		<line style="fill:none;stroke:#263238;stroke-miterlimit:10;" x1="683.226" y1="446.776" x2="709.019" y2="446.776"/>
		<line style="fill:none;stroke:#263238;stroke-miterlimit:10;" x1="211.113" y1="446.776" x2="674.418" y2="446.776"/>
		<line style="fill:none;stroke:#263238;stroke-miterlimit:10;" x1="36.059" y1="446.776" x2="200.543" y2="446.776"/>
	</g>
</g>
<g id="Plants_1_">
	<g>
		<path style="fill:#263238;" d="M318.611,176.267c4.506,1.967,15.525,1.719,15.533,1.719c0.114-0.003-2.369-7.214-2.577-7.651
			c-2.417-5.058-10.064-13.409-16.285-12.569c-4.482,0.606-6.974,5.091-5.963,9.311
			C310.353,171.388,314.774,174.589,318.611,176.267z"/>
		<path style="fill:#263238;" d="M322.414,208.185c4.673,0.681,14.507-2.17,15.289-2.401c1.553,5.505,3.592,11.029,5.965,16.504
			c1.352,3.132,2.813,6.244,4.315,9.346c-0.897-1.314-1.709-2.482-1.84-2.634c-3.669-4.24-13.249-10.275-19.025-7.82
			c-4.165,1.767-5.383,6.751-3.293,10.554c2.134,3.883,7.246,5.805,11.388,6.408c4.205,0.614,12.637-1.65,14.861-2.279
			c0.589,1.184,1.164,2.373,1.758,3.554c2.848,5.671,5.714,11.317,8.356,16.941c0.932,1.981,1.776,3.967,2.63,5.951
			c-0.798-1.167-1.48-2.142-1.599-2.281c-3.668-4.239-13.247-10.275-19.026-7.82c-4.163,1.768-5.383,6.752-3.293,10.555
			c2.136,3.884,7.245,5.805,11.389,6.408c4.013,0.585,11.815-1.434,14.461-2.168c0.812,2.058,1.629,4.117,2.323,6.148
			c0.443,1.397,0.967,2.712,1.331,4.139c0.393,1.407,0.781,2.799,1.166,4.178c0.644,2.682,1.324,5.446,1.886,8.078
			c0.405,1.828,0.757,3.578,1.117,5.339c-0.905-1.983-2.758-5.829-2.949-6.133c-2.982-4.746-11.537-12.162-17.621-10.613
			c-4.383,1.117-6.343,5.859-4.852,9.934c1.522,4.162,6.281,6.835,10.285,8.059c4.409,1.347,14.169,0.116,15.388-0.046
			c0.585,2.916,1.126,5.758,1.594,8.449c0.351,1.991,0.671,3.904,0.965,5.743h3.909c-0.369-2.047-0.772-4.187-1.218-6.426
			c-0.582-2.964-1.263-6.119-1.993-9.353c0.734-0.291,4.897-1.975,8.585-4.037c3.213,3.48,11.447,7.552,12.512,8.07
			c-1.12,2.755-2.237,5.424-3.332,7.926c-0.576,1.326-1.136,2.577-1.693,3.82h4.133c0.328-0.786,0.653-1.555,0.987-2.372
			c1.15-2.793,2.323-5.801,3.498-8.9c1.181,0.247,10.843,2.209,15.346,1.193c4.083-0.923,9.031-3.234,10.859-7.272
			c1.79-3.952,0.188-8.827-4.101-10.267c-5.95-1.999-15.034,4.759-18.362,9.271c-0.197,0.266-2.005,3.391-3.112,5.381
			c0.473-1.269,0.946-2.496,1.418-3.808c0.951-2.588,1.822-5.2,2.769-8.006c0.41-1.371,0.825-2.756,1.244-4.155
			c0.444-1.379,0.738-2.891,1.118-4.348c0.81-3.399,1.464-6.881,2.046-10.404c2.269,0.825,10.368,3.643,14.565,3.348
			c4.177-0.294,9.415-1.827,11.834-5.542c2.368-3.636,1.523-8.698-2.496-10.772c-5.58-2.877-15.583,2.428-19.556,6.382
			c-0.248,0.246-2.78,3.405-4.137,5.166c0.333-2.12,0.676-4.235,0.943-6.392c0.773-6.224,1.36-12.549,1.976-18.856
			c0.187-1.932,0.397-3.855,0.6-5.781c0.805,0.303,10.358,3.86,15.059,3.53c4.177-0.292,9.416-1.827,11.834-5.542
			c2.368-3.635,1.523-8.697-2.497-10.77c-5.579-2.878-15.582,2.427-19.555,6.381c-0.299,0.298-3.937,4.847-4.805,6.05
			c0.448-4.241,0.934-8.463,1.582-12.605c0.885-5.717,2.072-11.277,3.618-16.579c0.374,0.142,10.33,3.899,15.143,3.562
			c4.177-0.294,9.417-1.828,11.835-5.542c2.368-3.636,1.524-8.697-2.497-10.771c-5.58-2.878-15.582,2.427-19.556,6.382
			c-0.311,0.311-4.222,5.207-4.868,6.146c0.093-0.315,0.155-0.652,0.251-0.965c1.723-5.639,4.101-10.886,6.568-15.688
			c1.428-2.794,2.95-5.385,4.485-7.871c1.783,0.89,9.974,4.867,14.339,5.042c4.184,0.167,9.561-0.783,12.371-4.209
			c2.753-3.354,2.47-8.478-1.298-10.979c-5.231-3.473-15.755,0.701-20.139,4.195c-0.238,0.19-2.447,2.39-4.034,4.015
			c0.71-1.112,1.422-2.273,2.124-3.324c2.626-3.955,5.275-7.415,7.646-10.46c1.361-1.72,2.627-3.249,3.827-4.668
			c2.204-0.038,11.087-0.308,14.971-2.131c3.789-1.78,8.124-5.099,9.041-9.436c0.897-4.246-1.716-8.663-6.212-9.146
			c-6.242-0.673-13.66,7.881-15.94,13.003c-0.196,0.443-2.484,7.719-2.369,7.718c0,0,0.107-0.001,0.133-0.001
			c-1.182,1.341-2.432,2.793-3.768,4.407c-2.442,3-5.173,6.41-7.895,10.324c-2.731,3.904-5.588,8.222-8.187,13.041
			c-2.612,4.828-5.111,10.04-6.993,15.743c-0.021,0.064-0.035,0.134-0.057,0.199c0.033-1.839-0.048-6.984-0.1-7.378
			c-0.721-5.559-5.38-15.879-11.555-17.02c-4.447-0.821-8.214,2.662-8.568,6.988c-0.361,4.417,2.841,8.838,5.964,11.628
			c3.522,3.146,13.297,6.192,14.076,6.433c-1.743,5.447-3.087,11.179-4.13,17.054c-0.599,3.359-1.098,6.761-1.556,10.178
			c-0.023-1.591-0.056-3.014-0.082-3.212c-0.721-5.56-5.38-15.878-11.554-17.019c-4.448-0.823-8.214,2.663-8.568,6.987
			c-0.363,4.417,2.84,8.838,5.963,11.627c3.169,2.83,11.451,5.596,13.652,6.298c-0.161,1.313-0.338,2.622-0.494,3.935
			c-0.753,6.3-1.477,12.591-2.376,18.739c-0.315,2.167-0.706,4.289-1.089,6.413c-0.022-1.412-0.053-2.602-0.076-2.782
			c-0.721-5.56-5.38-15.879-11.553-17.02c-4.449-0.821-8.216,2.662-8.57,6.989c-0.362,4.415,2.842,8.838,5.965,11.626
			c3.023,2.701,10.646,5.322,13.257,6.169c-0.458,2.165-0.913,4.333-1.455,6.41c-0.402,1.409-0.691,2.794-1.173,4.188
			c-0.449,1.388-0.892,2.765-1.332,4.127c-0.944,2.592-1.9,5.273-2.884,7.778c-0.671,1.748-1.343,3.402-2.014,5.068
			c0.339-2.153,0.915-6.382,0.924-6.741c0.086-3.723-1.237-9.778-3.869-14.034c0.016-0.55-0.015-1.098-0.103-1.643
			c-0.689-4.285-4.714-7.467-9.085-6.303c-6.066,1.615-9.914,12.264-10.201,17.862c-0.017,0.331,0.199,3.934,0.373,6.206
			c-0.306-1.32-0.587-2.604-0.918-3.959c-0.636-2.683-1.351-5.342-2.107-8.207c-0.414-1.37-0.833-2.753-1.256-4.151
			c-0.389-1.394-0.979-2.818-1.466-4.243c-1.2-3.28-2.575-6.548-4.034-9.806c2.349-0.563,10.659-2.681,13.995-5.242
			c3.322-2.548,6.845-6.72,6.814-11.15c-0.031-4.34-3.527-8.096-8.024-7.607c-6.242,0.677-11.658,10.621-12.791,16.111
			c-0.07,0.343-0.44,4.373-0.601,6.591c-0.892-1.952-1.772-3.905-2.74-5.852c-2.789-5.618-5.786-11.218-8.754-16.818
			c-0.909-1.715-1.795-3.434-2.689-5.152c0.838-0.192,10.77-2.496,14.507-5.364c3.322-2.548,6.845-6.719,6.814-11.151
			c-0.031-4.339-3.527-8.095-8.023-7.605c-6.242,0.677-11.658,10.62-12.791,16.11c-0.085,0.414-0.608,6.214-0.67,7.696
			c-1.966-3.783-3.889-7.573-5.635-11.386c-2.414-5.257-4.493-10.549-6.127-15.824c0.391-0.089,10.767-2.448,14.595-5.384
			c3.322-2.549,6.846-6.719,6.813-11.151c-0.03-4.339-3.527-8.094-8.024-7.606c-6.241,0.678-11.657,10.621-12.79,16.111
			c-0.089,0.431-0.649,6.673-0.669,7.81c-0.097-0.313-0.232-0.627-0.325-0.941c-1.673-5.656-2.584-11.343-3.176-16.71
			c-0.351-3.117-0.51-6.117-0.601-9.038c1.977-0.242,11.004-1.443,14.74-3.706c3.583-2.169,7.543-5.927,7.998-10.335
			c0.445-4.317-2.617-8.434-7.14-8.442c-6.278-0.012-12.754,9.276-14.483,14.608c-0.094,0.291-0.724,3.344-1.15,5.575
			c-0.02-1.319-0.067-2.681-0.061-3.945c0.009-4.747,0.309-9.095,0.606-12.942c0.186-2.187,0.399-4.161,0.618-6.004
			c1.817-1.25,9.077-6.375,11.31-10.038c2.18-3.575,3.962-8.735,2.335-12.857c-1.594-4.037-6.21-6.279-10.226-4.203
			c-5.578,2.883-7.044,14.11-6.123,19.64c0.081,0.477,2.187,7.807,2.283,7.744c0,0,0.089-0.061,0.109-0.076
			c-0.246,1.77-0.488,3.672-0.711,5.754c-0.383,3.849-0.778,8.2-0.889,12.966c-0.124,4.762-0.125,9.94,0.367,15.394
			c0.486,5.466,1.275,11.193,2.852,16.987c0.018,0.065,0.045,0.132,0.063,0.197c-0.988-1.552-3.895-5.798-4.155-6.099
			c-3.668-4.24-13.247-10.275-19.025-7.822c-4.163,1.769-5.383,6.753-3.292,10.556C313.162,205.661,318.272,207.581,322.414,208.185
			z"/>
		<path style="fill:#263238;" d="M430.07,178.69c0.097,0.061,2.004-7.324,2.072-7.803c0.773-5.552-0.998-16.736-6.651-19.467
			c-4.072-1.967-8.625,0.399-10.108,4.478c-1.516,4.164,0.405,9.274,2.681,12.789C420.735,172.814,430.063,178.685,430.07,178.69z"
			/>
	</g>
	<g>
		<path style="fill:#263238;" d="M553.364,384.001c-3.641,0.748-10.341,5.702-10.346,5.705c-0.069,0.052,4.606,3.425,4.926,3.604
			c3.697,2.072,12.06,3.9,15.538,0.67c2.505-2.327,2.091-6.184-0.373-8.351C560.592,383.417,556.466,383.366,553.364,384.001z"/>
		<path style="fill:#263238;" d="M537.108,365.938c-3.184,1.615-8.018,7.662-8.4,8.145c-3.358-2.725-7.025-5.249-10.876-7.598
			c-2.2-1.346-4.458-2.633-6.738-3.894c1.126,0.421,2.137,0.789,2.284,0.826c4.114,1.021,12.662,0.576,15.162-3.457
			c1.803-2.906,0.384-6.516-2.564-7.956c-3.01-1.47-7.006-0.429-9.828,1.003c-2.865,1.453-7.089,6.526-8.189,7.883
			c-0.88-0.475-1.753-0.959-2.635-1.43c-4.23-2.263-8.461-4.502-12.543-6.826c-1.439-0.818-2.826-1.677-4.218-2.531
			c1.001,0.373,1.848,0.679,1.982,0.712c4.113,1.021,12.661,0.577,15.162-3.457c1.802-2.906,0.384-6.517-2.564-7.956
			c-3.012-1.469-7.006-0.43-9.829,1.003c-2.734,1.387-6.675,6.033-7.99,7.64c-1.398-0.918-2.8-1.834-4.114-2.786
			c-0.882-0.671-1.779-1.254-2.626-1.978c-0.856-0.698-1.702-1.389-2.541-2.073c-1.566-1.376-3.191-2.788-4.685-4.169
			c-1.046-0.953-2.026-1.881-3.016-2.812c1.423,0.831,4.243,2.4,4.494,2.504c3.91,1.633,12.427,2.488,15.511-1.12
			c2.221-2.6,1.367-6.383-1.331-8.252c-2.753-1.908-6.859-1.487-9.866-0.498c-3.311,1.089-8.805,6.102-9.488,6.733
			c-1.632-1.547-3.205-3.067-4.666-4.526c-1.085-1.077-2.116-2.12-3.098-3.128l-2.415,1.703c1.12,1.104,2.301,2.25,3.552,3.44
			c1.651,1.578,3.446,3.23,5.306,4.91c-0.327,0.5-2.165,3.354-3.546,6.235c-3.501-0.75-10.363,0.321-11.247,0.465
			c-0.509-2.19-0.981-4.326-1.395-6.349c-0.222-1.07-0.421-2.087-0.618-3.098l-2.554,1.801c0.14,0.629,0.274,1.245,0.424,1.896
			c0.506,2.226,1.092,4.596,1.717,7.023c-0.837,0.362-7.662,3.359-10.001,5.949c-2.121,2.35-4.171,5.933-3.541,9.224
			c0.616,3.221,3.73,5.536,7.007,4.557c4.547-1.357,7.215-9.491,7.306-13.728c0.006-0.25-0.239-2.969-0.422-4.681
			c0.26,0.99,0.503,1.954,0.783,2.971c0.54,2.014,1.14,4.007,1.777,6.153c0.344,1.026,0.691,2.062,1.042,3.109
			c0.327,1.045,0.803,2.108,1.204,3.174c0.98,2.453,2.094,4.889,3.269,7.319c-1.761,0.479-7.993,2.266-10.457,4.277
			c-2.453,2.001-5.021,5.231-4.897,8.58c0.121,3.278,2.848,6.038,6.235,5.568c4.701-0.654,8.57-8.289,9.302-12.464
			c0.046-0.26,0.234-3.315,0.305-4.994c0.718,1.455,1.428,2.911,2.202,4.36c2.235,4.182,4.627,8.346,6.995,12.511
			c0.726,1.275,1.434,2.555,2.148,3.833c-0.629,0.163-8.082,2.128-10.842,4.38c-2.453,2-5.022,5.232-4.897,8.58
			c0.121,3.278,2.848,6.037,6.235,5.566c4.701-0.653,8.57-8.288,9.302-12.463c0.055-0.314,0.32-4.71,0.333-5.831
			c1.571,2.816,3.11,5.636,4.514,8.477c1.944,3.918,3.633,7.87,4.988,11.82c-0.293,0.075-8.081,2.092-10.908,4.397
			c-2.453,2.001-5.022,5.232-4.898,8.581c0.121,3.278,2.848,6.037,6.235,5.567c4.701-0.653,8.57-8.288,9.302-12.463
			c0.057-0.327,0.34-5.056,0.33-5.918c0.079,0.235,0.188,0.47,0.265,0.705c1.392,4.235,2.209,8.512,2.777,12.555
			c0.335,2.348,0.524,4.612,0.658,6.818c-1.489,0.227-8.283,1.338-11.056,3.132c-2.658,1.72-5.566,4.649-5.81,7.99
			c-0.24,3.272,2.168,6.314,5.585,6.218c4.745-0.133,9.429-7.298,10.615-11.366c0.064-0.221,0.471-2.543,0.743-4.238
			c0.046,0.997,0.112,2.024,0.136,2.979c0.1,3.588-0.029,6.879-0.166,9.794c-0.092,1.656-0.207,3.152-0.331,4.551
			c-1.345,0.984-6.716,5.021-8.321,7.84c-1.565,2.751-2.798,6.69-1.475,9.769c1.296,3.014,4.834,4.605,7.823,2.944
			c4.15-2.303,5.006-10.821,4.183-14.979c-0.072-0.359-1.828-5.851-1.899-5.8c0,0-0.066,0.047-0.082,0.059
			c0.146-1.344,0.286-2.785,0.408-4.364c0.202-2.917,0.403-6.215,0.38-9.818c-0.014-3.602-0.13-7.514-0.624-11.625
			c-0.49-4.121-1.216-8.43-2.538-12.773c-0.015-0.049-0.037-0.098-0.052-0.148c0.781,1.151,3.073,4.294,3.276,4.515
			c2.868,3.121,10.242,7.467,14.555,5.482c3.105-1.43,3.915-5.224,2.249-8.051c-1.702-2.887-5.605-4.223-8.751-4.586
			c-3.546-0.409-10.913,1.968-11.499,2.158c-1.297-4.125-2.963-8.252-4.878-12.336c-1.093-2.337-2.267-4.655-3.473-6.966
			c0.708,0.973,1.347,1.838,1.45,1.949c2.868,3.121,10.242,7.466,14.554,5.481c3.107-1.429,3.915-5.224,2.25-8.05
			c-1.701-2.887-5.606-4.223-8.75-4.586c-3.191-0.368-9.513,1.532-11.178,2.057c-0.472-0.881-0.934-1.767-1.409-2.647
			c-2.279-4.221-4.573-8.422-6.696-12.613c-0.75-1.476-1.432-2.957-2.121-4.437c0.629,0.863,1.166,1.585,1.259,1.686
			c2.868,3.121,10.242,7.466,14.553,5.482c3.106-1.431,3.916-5.224,2.25-8.052c-1.7-2.886-5.606-4.222-8.751-4.585
			c-3.045-0.352-8.896,1.35-10.879,1.965c-0.66-1.537-1.324-3.075-1.894-4.594c-0.366-1.046-0.79-2.027-1.1-3.098
			c-0.328-1.053-0.653-2.097-0.975-3.13c-0.546-2.013-1.123-4.086-1.607-6.062c-0.347-1.372-0.652-2.687-0.964-4.009
			c0.729,1.478,2.215,4.342,2.366,4.567c1.569,2.338,5.024,5.502,8.505,6.985c0.23,0.347,0.488,0.672,0.779,0.97
			c2.292,2.347,6.166,2.56,8.359-0.064c3.044-3.641,0.782-11.897-1.48-15.48c-0.133-0.212-1.837-2.344-2.934-3.672
			c0.764,0.682,1.497,1.353,2.292,2.046c1.562,1.381,3.162,2.712,4.877,4.152c0.852,0.666,1.714,1.338,2.585,2.017
			c0.848,0.691,1.832,1.314,2.755,1.983c2.171,1.504,4.444,2.923,6.765,4.301c-1.206,1.371-5.417,6.3-6.363,9.336
			c-0.942,3.022-1.301,7.134,0.648,9.858c1.91,2.668,5.706,3.465,8.272,1.204c3.561-3.138,2.576-11.641,0.884-15.527
			c-0.106-0.242-1.633-2.894-2.5-4.334c1.401,0.817,2.797,1.641,4.242,2.422c4.171,2.256,8.463,4.41,12.736,6.577
			c1.309,0.663,2.605,1.339,3.905,2.012c-0.434,0.484-5.566,6.235-6.626,9.635c-0.942,3.022-1.302,7.134,0.649,9.858
			c1.909,2.667,5.706,3.465,8.271,1.203c3.561-3.138,2.576-11.641,0.884-15.527c-0.128-0.293-2.332-4.105-2.939-5.047
			c2.863,1.481,5.702,2.984,8.442,4.58c3.782,2.196,7.372,4.56,10.68,7.107c-0.203,0.225-5.586,6.203-6.672,9.686
			c-0.942,3.022-1.302,7.134,0.649,9.858c1.909,2.668,5.706,3.464,8.272,1.203c3.561-3.138,2.575-11.641,0.883-15.526
			c-0.133-0.305-2.506-4.406-2.989-5.117c0.196,0.151,0.417,0.286,0.611,0.44c3.498,2.766,6.539,5.882,9.243,8.94
			c1.575,1.773,2.98,3.557,4.309,5.323c-1.117,1.011-6.17,5.686-7.493,8.712c-1.268,2.901-2.078,6.948-0.438,9.87
			c1.605,2.861,5.292,4.071,8.089,2.105c3.884-2.728,3.839-11.288,2.583-15.336c-0.068-0.221-1.01-2.382-1.718-3.946
			c0.587,0.806,1.209,1.627,1.757,2.411c2.063,2.937,3.772,5.754,5.264,8.26c0.838,1.433,1.566,2.744,2.234,3.979
			c-0.578,1.564-2.831,7.893-2.614,11.13c0.211,3.159,1.357,7.123,4.159,8.961c2.744,1.8,6.572,1.174,8.149-1.859
			c2.19-4.211-1.795-11.787-4.774-14.802c-0.258-0.26-4.753-3.871-4.784-3.79c0,0-0.028,0.076-0.035,0.094
			c-0.619-1.201-1.298-2.481-2.068-3.865c-1.44-2.545-3.092-5.406-5.1-8.399c-1.998-2.996-4.254-6.196-6.934-9.351
			c-2.682-3.166-5.664-6.36-9.163-9.253c-0.039-0.033-0.085-0.062-0.125-0.094c1.286,0.529,4.933,1.885,5.224,1.958
			c4.113,1.022,12.661,0.577,15.163-3.457c1.801-2.906,0.384-6.517-2.565-7.956C543.924,363.466,539.93,364.506,537.108,365.938z"/>
		<path style="fill:#263238;" d="M483.443,431.065c-0.087,0.005,1.953,5.398,2.12,5.724c1.942,3.767,7.908,9.905,12.591,9.13
			c3.373-0.559,5.155-4.005,4.294-7.171c-0.877-3.233-4.291-5.553-7.228-6.733C491.771,430.629,483.45,431.065,483.443,431.065z"/>
	</g>
	<g>
		<path style="fill:#263238;" d="M219.949,384.001c3.641,0.748,10.341,5.702,10.346,5.705c0.069,0.052-4.606,3.425-4.926,3.604
			c-3.697,2.072-12.06,3.9-15.538,0.67c-2.505-2.327-2.091-6.184,0.373-8.351C212.721,383.417,216.848,383.366,219.949,384.001z"/>
		<path style="fill:#263238;" d="M236.206,365.938c3.184,1.615,8.018,7.662,8.4,8.145c3.358-2.725,7.024-5.249,10.876-7.598
			c2.2-1.346,4.458-2.633,6.738-3.894c-1.127,0.421-2.137,0.789-2.284,0.826c-4.114,1.021-12.662,0.576-15.162-3.457
			c-1.803-2.906-0.384-6.516,2.564-7.956c3.01-1.47,7.006-0.429,9.828,1.003c2.865,1.453,7.089,6.526,8.189,7.883
			c0.88-0.475,1.753-0.959,2.635-1.43c4.23-2.263,8.461-4.502,12.543-6.826c1.439-0.818,2.826-1.677,4.218-2.531
			c-1.001,0.373-1.848,0.679-1.982,0.712c-4.113,1.021-12.661,0.577-15.162-3.457c-1.802-2.906-0.384-6.517,2.564-7.956
			c3.012-1.469,7.006-0.43,9.829,1.003c2.734,1.387,6.675,6.033,7.99,7.64c1.398-0.918,2.801-1.834,4.114-2.786
			c0.882-0.671,1.779-1.254,2.626-1.978c0.856-0.698,1.702-1.389,2.54-2.073c1.566-1.376,3.191-2.788,4.685-4.169
			c1.046-0.953,2.026-1.881,3.016-2.812c-1.423,0.831-4.243,2.4-4.494,2.504c-3.91,1.633-12.427,2.488-15.511-1.12
			c-2.221-2.6-1.367-6.383,1.331-8.252c2.753-1.908,6.859-1.487,9.866-0.498c3.311,1.089,8.805,6.102,9.488,6.733
			c1.632-1.547,3.205-3.067,4.666-4.526c1.085-1.077,2.116-2.12,3.098-3.128l2.415,1.703c-1.12,1.104-2.301,2.25-3.552,3.44
			c-1.651,1.578-3.446,3.23-5.306,4.91c0.326,0.5,2.165,3.354,3.546,6.235c3.501-0.75,10.363,0.321,11.247,0.465
			c0.509-2.19,0.981-4.326,1.395-6.349c0.222-1.07,0.421-2.087,0.618-3.098l2.554,1.801c-0.14,0.629-0.274,1.245-0.424,1.896
			c-0.506,2.226-1.092,4.596-1.717,7.023c0.837,0.362,7.662,3.359,10.001,5.949c2.121,2.35,4.171,5.933,3.541,9.224
			c-0.616,3.221-3.73,5.536-7.007,4.557c-4.547-1.357-7.215-9.491-7.306-13.728c-0.006-0.25,0.239-2.969,0.422-4.681
			c-0.26,0.99-0.503,1.954-0.783,2.971c-0.54,2.014-1.14,4.007-1.777,6.153c-0.344,1.026-0.691,2.062-1.042,3.109
			c-0.327,1.045-0.803,2.108-1.204,3.174c-0.98,2.453-2.094,4.889-3.269,7.319c1.761,0.479,7.993,2.266,10.457,4.277
			c2.453,2.001,5.021,5.231,4.897,8.58c-0.121,3.278-2.848,6.038-6.235,5.568c-4.701-0.654-8.57-8.289-9.302-12.464
			c-0.046-0.26-0.234-3.315-0.305-4.994c-0.718,1.455-1.428,2.911-2.202,4.36c-2.234,4.182-4.627,8.346-6.995,12.511
			c-0.726,1.275-1.434,2.555-2.148,3.833c0.629,0.163,8.082,2.128,10.842,4.38c2.453,2,5.022,5.232,4.897,8.58
			c-0.121,3.278-2.848,6.037-6.235,5.566c-4.701-0.653-8.57-8.288-9.302-12.463c-0.055-0.314-0.32-4.71-0.333-5.831
			c-1.571,2.816-3.11,5.636-4.514,8.477c-1.944,3.918-3.633,7.87-4.988,11.82c0.293,0.075,8.081,2.092,10.908,4.397
			c2.453,2.001,5.022,5.232,4.898,8.581c-0.121,3.278-2.848,6.037-6.235,5.567c-4.701-0.653-8.57-8.288-9.302-12.463
			c-0.057-0.327-0.34-5.056-0.33-5.918c-0.079,0.235-0.188,0.47-0.265,0.705c-1.392,4.235-2.209,8.512-2.777,12.555
			c-0.335,2.348-0.524,4.612-0.658,6.818c1.489,0.227,8.283,1.338,11.056,3.132c2.658,1.72,5.566,4.649,5.81,7.99
			c0.24,3.272-2.168,6.314-5.585,6.218c-4.745-0.133-9.429-7.298-10.615-11.366c-0.064-0.221-0.471-2.543-0.743-4.238
			c-0.046,0.997-0.112,2.024-0.136,2.979c-0.1,3.588,0.029,6.879,0.166,9.794c0.092,1.656,0.207,3.152,0.331,4.551
			c1.345,0.984,6.716,5.021,8.321,7.84c1.565,2.751,2.798,6.69,1.475,9.769c-1.296,3.014-4.835,4.605-7.823,2.944
			c-4.15-2.303-5.006-10.821-4.183-14.979c0.072-0.359,1.828-5.851,1.899-5.8c0,0,0.066,0.047,0.082,0.059
			c-0.146-1.344-0.286-2.785-0.408-4.364c-0.202-2.917-0.403-6.215-0.38-9.818c0.014-3.602,0.13-7.514,0.624-11.625
			c0.49-4.121,1.216-8.43,2.538-12.773c0.015-0.049,0.037-0.098,0.052-0.148c-0.781,1.151-3.073,4.294-3.276,4.515
			c-2.868,3.121-10.242,7.467-14.555,5.482c-3.105-1.43-3.915-5.224-2.25-8.051c1.702-2.887,5.605-4.223,8.751-4.586
			c3.546-0.409,10.913,1.968,11.5,2.158c1.297-4.125,2.963-8.252,4.878-12.336c1.093-2.337,2.267-4.655,3.473-6.966
			c-0.708,0.973-1.347,1.838-1.45,1.949c-2.868,3.121-10.242,7.466-14.554,5.481c-3.107-1.429-3.915-5.224-2.249-8.05
			c1.701-2.887,5.605-4.223,8.75-4.586c3.191-0.368,9.513,1.532,11.179,2.057c0.472-0.881,0.934-1.767,1.409-2.647
			c2.279-4.221,4.573-8.422,6.696-12.613c0.75-1.476,1.432-2.957,2.121-4.437c-0.629,0.863-1.167,1.585-1.259,1.686
			c-2.868,3.121-10.242,7.466-14.553,5.482c-3.107-1.431-3.916-5.224-2.25-8.052c1.7-2.886,5.606-4.222,8.751-4.585
			c3.045-0.352,8.896,1.35,10.879,1.965c0.66-1.537,1.324-3.075,1.894-4.594c0.366-1.046,0.79-2.027,1.1-3.098
			c0.328-1.053,0.653-2.097,0.975-3.13c0.546-2.013,1.123-4.086,1.607-6.062c0.347-1.372,0.652-2.687,0.964-4.009
			c-0.729,1.478-2.215,4.342-2.366,4.567c-1.569,2.338-5.024,5.502-8.505,6.985c-0.23,0.347-0.488,0.672-0.779,0.97
			c-2.292,2.347-6.166,2.56-8.359-0.064c-3.044-3.641-0.782-11.897,1.48-15.48c0.133-0.212,1.837-2.344,2.934-3.672
			c-0.764,0.682-1.497,1.353-2.292,2.046c-1.562,1.381-3.162,2.712-4.877,4.152c-0.852,0.666-1.714,1.338-2.585,2.017
			c-0.848,0.691-1.832,1.314-2.754,1.983c-2.171,1.504-4.444,2.923-6.765,4.301c1.206,1.371,5.417,6.3,6.363,9.336
			c0.942,3.022,1.301,7.134-0.648,9.858c-1.91,2.668-5.706,3.465-8.272,1.204c-3.561-3.138-2.576-11.641-0.884-15.527
			c0.106-0.242,1.633-2.894,2.5-4.334c-1.401,0.817-2.797,1.641-4.242,2.422c-4.171,2.256-8.463,4.41-12.736,6.577
			c-1.309,0.663-2.605,1.339-3.906,2.012c0.434,0.484,5.567,6.235,6.626,9.635c0.942,3.022,1.302,7.134-0.648,9.858
			c-1.91,2.667-5.706,3.465-8.271,1.203c-3.561-3.138-2.576-11.641-0.884-15.527c0.128-0.293,2.331-4.105,2.939-5.047
			c-2.863,1.481-5.702,2.984-8.442,4.58c-3.782,2.196-7.372,4.56-10.68,7.107c0.203,0.225,5.586,6.203,6.672,9.686
			c0.942,3.022,1.302,7.134-0.649,9.858c-1.909,2.668-5.706,3.464-8.271,1.203c-3.561-3.138-2.575-11.641-0.883-15.526
			c0.133-0.305,2.506-4.406,2.989-5.117c-0.196,0.151-0.417,0.286-0.611,0.44c-3.498,2.766-6.539,5.882-9.243,8.94
			c-1.575,1.773-2.98,3.557-4.309,5.323c1.117,1.011,6.17,5.686,7.493,8.712c1.268,2.901,2.078,6.948,0.438,9.87
			c-1.606,2.861-5.292,4.071-8.089,2.105c-3.884-2.728-3.838-11.288-2.583-15.336c0.068-0.221,1.01-2.382,1.718-3.946
			c-0.587,0.806-1.209,1.627-1.757,2.411c-2.063,2.937-3.772,5.754-5.264,8.26c-0.838,1.433-1.566,2.744-2.234,3.979
			c0.578,1.564,2.831,7.893,2.615,11.13c-0.211,3.159-1.357,7.123-4.159,8.961c-2.744,1.8-6.572,1.174-8.149-1.859
			c-2.19-4.211,1.795-11.787,4.774-14.802c0.258-0.26,4.753-3.871,4.784-3.79c0,0,0.028,0.076,0.035,0.094
			c0.619-1.201,1.298-2.481,2.068-3.865c1.44-2.545,3.092-5.406,5.1-8.399c1.998-2.996,4.254-6.196,6.934-9.351
			c2.682-3.166,5.664-6.36,9.163-9.253c0.04-0.033,0.085-0.062,0.125-0.094c-1.286,0.529-4.933,1.885-5.224,1.958
			c-4.113,1.022-12.661,0.577-15.163-3.457c-1.801-2.906-0.384-6.517,2.565-7.956C229.389,363.466,233.383,364.506,236.206,365.938z
			"/>
		<path style="fill:#263238;" d="M289.87,431.065c0.087,0.005-1.953,5.398-2.12,5.724c-1.942,3.767-7.908,9.905-12.591,9.13
			c-3.373-0.559-5.155-4.005-4.294-7.171c0.878-3.233,4.291-5.553,7.228-6.733C281.542,430.629,289.863,431.065,289.87,431.065z"/>
	</g>
</g>
<g id="Speech_Bubble_2">
	<g>
		<g>
			<path style="fill:#FFFFFF;stroke:#263238;stroke-miterlimit:10;" d="M659.904,123.177c-3.98-4.904-6.369-11.152-6.369-17.96
				c0-15.754,12.771-28.525,28.525-28.525s28.525,12.771,28.525,28.525c0,15.754-12.771,28.525-28.525,28.525
				c-6.161,0-11.861-1.96-16.524-5.281l-12.751,6.181L659.904,123.177z"/>
		</g>
		<g>
			<g>
				
					<rect x="663.672" y="100.124" transform="matrix(-1 -1.224647e-16 1.224647e-16 -1 1334.6638 210.8923)" style="fill:#263238;" width="7.319" height="10.644"/>
				<polygon style="fill:#263238;" points="669.5,110.768 681.715,119.639 681.715,91.253 669.5,100.124 				"/>
			</g>
			<g>
				<path style="fill:none;stroke:#263238;stroke-linecap:round;stroke-linejoin:round;stroke-miterlimit:10;" d="M692.393,94.005
					c3.022,2.605,4.935,6.461,4.935,10.764c0,4.761-2.342,8.974-5.937,11.552"/>
				<path style="fill:none;stroke:#263238;stroke-linecap:round;stroke-linejoin:round;stroke-miterlimit:10;" d="M685.93,98.106
					c2.597,1.096,4.42,3.667,4.42,6.663c0,2.994-1.82,5.563-4.415,6.66"/>
			</g>
		</g>
	</g>
</g>
<g id="Speech_Bubble_1">
	<g>
		<path style="fill:#FFFFFF;stroke:#263238;stroke-miterlimit:10;" d="M152.63,124.276c3.98-4.904,6.369-11.152,6.369-17.96
			c0-15.754-12.771-28.525-28.525-28.525c-15.754,0-28.525,12.771-28.525,28.525c0,15.754,12.771,28.525,28.525,28.525
			c6.161,0,11.861-1.96,16.524-5.281l12.751,6.181L152.63,124.276z"/>
		<g>
			<path style="fill:#263238;" d="M130.429,113.026L130.429,113.026c-3.024,0-5.475-2.451-5.475-5.474V90.193
				c0-3.023,2.451-5.474,5.475-5.474l0,0c3.023,0,5.474,2.451,5.474,5.474v17.358C135.904,110.575,133.453,113.026,130.429,113.026z
				"/>
			<g>
				<g>
					<path style="fill:#263238;" d="M130.473,116.965c-5.338,0-9.68-4.343-9.68-9.681v-8.145c0-0.553,0.448-1.001,1.001-1.001
						s1.001,0.448,1.001,1.001v8.145c0,4.233,3.444,7.678,7.677,7.678s7.678-3.444,7.678-7.678v-8.145
						c0-0.553,0.448-1.001,1.001-1.001c0.553,0,1.001,0.448,1.001,1.001v8.145C140.154,112.622,135.812,116.965,130.473,116.965z"/>
				</g>
				<g>
					<path style="fill:#263238;" d="M130.473,127.38c-0.553,0-1.001-0.448-1.001-1.001v-10.415c0-0.553,0.448-1.002,1.001-1.002
						c0.553,0,1.001,0.448,1.001,1.002v10.415C131.475,126.931,131.027,127.38,130.473,127.38z"/>
				</g>
				<g>
					<path style="fill:#263238;" d="M137.15,127.914h-13.352c-0.553,0-1.001-0.448-1.001-1.001c0-0.553,0.448-1.002,1.001-1.002
						h13.352c0.553,0,1.001,0.448,1.001,1.002C138.151,127.465,137.703,127.914,137.15,127.914z"/>
				</g>
			</g>
		</g>
	</g>
</g>
<g id="Character_2">
	<g>
		<g>
			<path style="fill:#FFFFFF;stroke:#263238;stroke-miterlimit:10;" d="M596.434,169.333l5.153-4.008c0,0,0.43-9.448,1.288-10.593
				c0.859-1.145,5.296-5.726,6.012-7.3c0.716-1.575,6.012,0.143,7.157,0.143c1.145,0,3.006-0.859,2.863,0
				c-0.143,0.859-0.716,2.577-2.004,3.149c-1.288,0.572-4.581-0.286-4.581-0.286l-0.573,5.583c0,0,12.167-3.149,10.45,0.573
				c-1.718,3.722-4.581,10.307-6.585,12.311c-2.004,2.004-10.163,3.435-10.163,3.435l-6.871,7.587L596.434,169.333z"/>
			<path style="fill:#FFFFFF;stroke:#263238;stroke-miterlimit:10;" d="M625.493,149.293c0,0,3.292-0.143,3.292,1.145
				c0,1.288-1.431,2.433-3.292,3.292s-3.149,0.43-3.149,0C622.344,153.301,625.493,149.293,625.493,149.293z"/>
			<path style="fill:#FFFFFF;stroke:#263238;stroke-miterlimit:10;" d="M625.493,153.73c0,0,1.718,1.718,0.143,3.865
				c-1.575,2.147-7.73,1.575-7.73,1.575l4.438-5.44C622.344,153.73,623.775,154.589,625.493,153.73z"/>
			<path style="fill:#FFFFFF;stroke:#263238;stroke-miterlimit:10;" d="M624.777,159.027c0,0-1.002,2.863-2.147,3.436
				c-1.145,0.573-6.441-0.573-6.441-0.573l1.718-2.72C617.906,159.17,624.061,159.17,624.777,159.027z"/>
			<path style="fill:#FFFFFF;stroke:#263238;stroke-miterlimit:10;" d="M622.63,162.462c0,0-1.431,2.577-2.433,3.292
				c-1.002,0.716-4.438,0.716-5.153,0.429s-0.429-2.29,0.573-2.72c1.002-0.429,5.01-0.573,5.01-0.573L622.63,162.462z"/>
			<path style="fill:#263238;stroke:#263238;stroke-linecap:round;stroke-linejoin:round;stroke-miterlimit:10;" d="M629.55,134.968
				l-17.988,22.47c-0.183,0.229-0.269,0.521-0.239,0.813l0.548,5.236c0.1,0.956,1.281,1.346,1.931,0.638l20.821-22.705
				c0.349-0.381,0.391-0.951,0.102-1.378l-3.38-5.001C630.924,134.418,630.02,134.382,629.55,134.968z"/>
			<path style="fill:none;stroke:#263238;stroke-miterlimit:10;" d="M610.892,158.168c0,0-1.861,4.724-4.151,5.726"/>
		</g>
		<polygon style="fill:#92E3A9;stroke:#263238;stroke-miterlimit:10;" points="585.269,173.771 597.436,167.759 600.442,181.214 
			585.126,193.811 		"/>
		<path style="fill:#92E3A9;stroke:#263238;stroke-miterlimit:10;" d="M591.011,123.891l6.099,6.458l-0.359,6.637l-3.767-3.767
			l-6.279,4.305l2.332,68.885l-19.015,2.153l11.302-84.671C581.324,123.891,582.759,117.971,591.011,123.891z"/>
		<path style="fill:#FFFFFF;stroke:#263238;stroke-miterlimit:10;" d="M583.98,131.686c0,0,0.573,13.313-1.002,25.909
			c-1.575,12.597-5.44,42.371-5.296,44.232c0.143,1.861,0.286,4.724-0.43,5.583c-0.716,0.859-10.306,1.288-10.306,1.288
			s8.302-56.543,9.591-65.99c1.288-9.448,1.432-15.889,3.149-15.746C581.404,127.105,583.98,131.686,583.98,131.686z"/>
		<path style="fill:#FFFFFF;stroke:#263238;stroke-miterlimit:10;" d="M633.346,96.444c0,0-5.382,7.355-6.817,9.149
			c-1.435,1.794-5.202,3.05-5.74,4.305c-0.538,1.256-1.794,6.279-2.332,7.714c-0.538,1.435-6.279-0.359-6.279-0.359
			s-9.508,6.279-11.302,6.637c-1.794,0.359-6.458-4.664-6.458-4.664l-6.458,10.405l-15.427-20.809l9.687-11.122
			c0,0-1.615-14.71-0.538-22.065c1.076-7.355,10.763-15.248,20.091-18.836c7.15-2.75,19.569,4.933,24.979,8.672
			c1.706,1.179,3.117,2.723,4.128,4.534c2.298,4.114,6.605,12.029,8.026,16.035C640.881,91.601,638.19,95.188,633.346,96.444z"/>
		<polygon style="fill:#263238;stroke:#263238;stroke-miterlimit:10;" points="594.419,119.227 590.652,114.742 589.576,126.94 		
			"/>
		<path style="fill:none;stroke:#263238;stroke-miterlimit:10;" d="M622.942,107.207c0,0,0.359-4.126-3.588-4.305"/>
		<path style="fill:#263238;" d="M617.899,109.285c-1.01,0.716-2.062,0.969-2.348,0.564c-0.286-0.404,0.301-1.312,1.311-2.028
			c1.01-0.716,2.062-0.968,2.348-0.564C619.497,107.661,618.91,108.569,617.899,109.285z"/>
		<path style="fill:none;stroke:#263238;stroke-miterlimit:10;" d="M605.182,113.307c0,0,0.538,2.87,2.332,4.305"/>
		<path style="fill:#263238;stroke:#263238;stroke-linecap:round;stroke-linejoin:round;stroke-miterlimit:10;" d="M638.907,86.04
			c-1.421-4.006-5.728-11.921-8.026-16.035c-1.011-1.811-2.422-3.354-4.128-4.534c-5.411-3.738-17.83-11.422-24.979-8.672
			c-9.328,3.588-19.015,11.481-20.091,18.836c-1.076,7.355,0.538,22.065,0.538,22.065s3.05,1.256,5.92,1.256
			c2.87,0,5.202-2.691,5.561-4.485c0.359-1.794,8.252-3.767,7.893-2.87c-0.359,0.897-0.718,3.05-1.256,3.947
			c-0.538,0.897,0.179,2.153,1.256,1.973c1.076-0.179,4.485-3.408,4.485-3.408s9.149,3.049,10.225,2.332
			c1.076-0.718,2.153-4.843,2.153-4.843s0.18,6.279,2.691,6.458s5.561-1.256,5.561-1.256s-0.897,3.767,0.897,3.588
			c1.794-0.179,5.74-3.947,5.74-3.947C638.19,95.188,640.881,91.601,638.907,86.04z"/>
		<path style="fill:#FFFFFF;stroke:#263238;stroke-miterlimit:10;" d="M600.339,96.444c0,0,0-8.969-1.973-9.149
			c-1.973-0.179-5.202,2.153-5.202,6.279s2.332,6.637,2.332,6.637"/>
		<g>
			<path style="fill:#FFFFFF;stroke:#263238;stroke-miterlimit:10;" d="M625.428,314.966l14.071,1.176c0,0,14.001-3.6,14.801-0.6
				s-3.8,5.8-7.6,9c-3.8,3.2-16.201,8.8-16.201,8.8s-10.4,5.6-14,6.4c-3.6,0.8-7.2-13-7.2-13L625.428,314.966z"/>
			<path style="fill:#FFFFFF;stroke:#263238;stroke-miterlimit:10;" d="M654.3,315.543c-0.091-0.343-0.362-0.596-0.759-0.782
				c-2.513,3.801-13.239,12.315-20.042,14.582c-5.52,1.84-15.854,5.794-20.378,7.54c1.044,1.842,2.211,3.12,3.378,2.861
				c3.6-0.8,14-6.4,14-6.4s12.4-5.6,16.201-8.8C650.5,321.343,655.1,318.543,654.3,315.543z"/>
		</g>
		<path style="fill:#263238;stroke:#263238;stroke-linecap:round;stroke-linejoin:round;stroke-miterlimit:10;" d="M563.697,239.94
			l24.001-0.4c0,0,13,69.602,14.8,72.803c1.8,3.2,3.2,4.2,3.2,4.2s-2,2-1.4,3.8c0.6,1.8,4.4,5.2,5,6.4c0.6,1.2,11.8-5,11.8-5
			l4.33-6.776c0,0-1.4-8.2-2.2-8.8c-0.8-0.6-2-1.6-2.2-2.8c-0.2-1.2,0.8-3.2,0.2-4.8c-0.6-1.6-2.2-2.6-2.4-4
			c-0.2-1.4,3.471-64.426,0.271-69.826c-3.2-5.4-16.601-4-16.601-4s-58.802,14.001-58.402,16.601
			C544.496,239.94,563.697,239.94,563.697,239.94z"/>
		<g>
			<path style="fill:#FFFFFF;stroke:#263238;stroke-miterlimit:10;" d="M601.216,305.387c0,0,2.527,2.527,3.97,3.79
				c1.444,1.263,11.911,7.4,12.092,8.482c0.18,1.083-0.902,4.512-2.166,5.234c-1.263,0.722-14.258-0.722-17.326-1.083
				c-3.068-0.361-13.175-6.136-16.423-7.941c-3.249-1.805-6.858-5.234-6.858-6.317c0-1.083,9.385-16.604,9.385-16.604l17.687,11.911
				L601.216,305.387z"/>
			<path style="fill:#FFFFFF;stroke:#263238;stroke-miterlimit:10;" d="M610.781,320.908c-5.234-0.722-14.258-1.263-19.491-4.692
				c-3.982-2.609-12.139-8.245-15.814-10.792c-0.595,1.122-0.97,1.914-0.97,2.13c0,1.083,3.609,4.512,6.858,6.317
				c3.249,1.805,13.355,7.58,16.423,7.941c3.068,0.361,16.062,1.805,17.326,1.083c0.421-0.24,0.82-0.783,1.16-1.437
				C615.282,321.421,613.576,321.294,610.781,320.908z"/>
			<path style="fill:#263238;stroke:#263238;stroke-linecap:round;stroke-linejoin:round;stroke-miterlimit:10;" d="
				M567.297,204.139c0,0,27.211-0.365,45.012,1.835c17.801,2.2,25.62,3.261,32.391,7.565c7.767,4.937-36.601,80.173-36.601,80.173
				l-3.8,4.8c0,0,0.8,2.4,0.2,2.8c-0.6,0.4-3.282,4.075-3.282,4.075l-17.319-12.276v-4.2l3.6-1.2c0,0-1.076-2.362,0.725-4.162
				c1.8-1.8,3.429-2.707,3.429-2.707l14.975-44.94c0,0-32.529,3.437-42.929,4.037c-10.4,0.6-46.802,0-46.802,0s-5.4-1.4-5-11.2
				c0.4-9.8,3.8-18.201,10.6-21.001C529.295,204.939,567.297,204.139,567.297,204.139z"/>
			<path style="fill:none;stroke:#FFFFFF;stroke-miterlimit:10;" d="M603.946,302.941c0,0,2.062-1.375,2.062-2.234
				c0-0.859-0.687-2.406-0.344-3.437c0.344-1.031,13.233-21.483,13.233-21.483"/>
			<polyline style="fill:none;stroke:#FFFFFF;stroke-miterlimit:10;" points="595.353,270.116 606.696,236.775 590.713,239.525 			
				"/>
			<line style="fill:none;stroke:#FFFFFF;stroke-miterlimit:10;" x1="606.626" y1="235.903" x2="625.227" y2="231.702"/>
			<path style="fill:none;stroke:#FFFFFF;stroke-miterlimit:10;" d="M614.426,236.303c0,0,10.2-0.4,15.201-3.2"/>
		</g>
		<path style="fill:#92E3A9;stroke:#263238;stroke-miterlimit:10;" d="M583.118,130.887l-13.095,77.675l-2.511,25.832
			c0,0-17.221,5.382-33.007,3.229c-15.786-2.153-20.092-5.74-20.092-5.74s13.454-55.969,13.454-56.507
			c0-0.538,7.534-33.725,10.584-40.721c3.05-6.996,30.676-26.191,30.676-26.191L583.118,130.887z"/>
		<polygon style="fill:#FFFFFF;stroke:#263238;stroke-miterlimit:10;" points="574.328,103.261 592.266,129.99 583.835,135.192 
			569.125,108.463 		"/>
		<g>
			<g>
				<path style="fill:#FFFFFF;stroke:#263238;stroke-miterlimit:10;" d="M504.506,226.969l-3.321,5.068
					c0,0-13.196,0.612-14.244,1.136c-1.049,0.524-5.68,6.205-5.68,6.729c0,0.524,15.206,0,15.206,0l5.331-1.398
					c0,0-2.971,1.486-2.359,1.66c0.612,0.175,4.894,0,4.894,0s6.641-2.097,7.603-3.233c0.961-1.136,2.796-7.253,2.796-7.253
					L504.506,226.969z"/>
				<path style="fill:none;stroke:#263238;stroke-miterlimit:10;" d="M491.66,239.815c0,0,5.855-5.505,6.205-5.768
					c0.349-0.262,1.922-0.437,1.922-0.437"/>
				<path style="fill:none;stroke:#263238;stroke-miterlimit:10;" d="M494.631,233.087c0,0-1.923,0.524-2.359,1.049
					c-0.437,0.524-4.457,5.942-4.457,5.942"/>
				<path style="fill:none;stroke:#263238;stroke-miterlimit:10;" d="M490.174,233.436c0,0-1.748,0.262-2.097,0.699
					c-0.35,0.437-3.845,5.68-3.845,5.68"/>
			</g>
			<path style="fill:#92E3A9;stroke:#263238;stroke-miterlimit:10;" d="M551.404,129.452c0,0-35.683,34.591-36.412,37.322
				c-0.728,2.731-11.652,60.99-11.652,60.99s2.549,1.274,5.28,2.003c2.731,0.728,8.193,1.092,8.193,1.092l16.567-50.066
				c0,0,34.773-24.76,36.594-26.216c1.821-1.456,3.277-8.375,3.277-10.741"/>
		</g>
	</g>
</g>
<g id="Character_1">
	<g>
		<path style="fill:#263238;stroke:#263238;stroke-linecap:round;stroke-linejoin:round;stroke-miterlimit:10;" d="M185.296,113.949
			c0,0-15.246,11.88-15.048,18.612c0.198,6.732,8.712,11.682,9.9,12.474c1.188,0.792,15.246,12.474,14.058,17.622
			c-1.188,5.148-12.87,4.158-14.85,10.296c-1.98,6.138,1.782,8.712,7.326,10.098c5.544,1.386,15.642-3.96,18.414-2.97
			c2.772,0.99,9.702,5.544,15.246,8.316c5.544,2.772,9.306,3.366,15.84-2.772c6.534-6.138,2.97-12.078,2.97-12.078
			s11.682,4.158,14.652-5.94c2.97-10.098-1.188-17.028-6.93-18.216c-5.742-1.188-8.712-1.188-8.712-1.188s0.396-14.85-3.564-19.998
			s-14.256-15.84-22.374-18.81C204.107,106.425,191.435,109.989,185.296,113.949z"/>
		<path style="fill:#263238;stroke:#263238;stroke-miterlimit:10;" d="M138.567,228.99l-3.374-10.263l7.446-3.019
			C142.639,215.709,140.533,226.575,138.567,228.99z"/>
		<path style="fill:#FFFFFF;stroke:#263238;stroke-miterlimit:10;" d="M178.458,374.704c0,0,4.83,3.823,4.628,6.037
			c-0.201,2.214-2.817,8.251-2.012,12.476s0,9.86-1.61,12.678c-1.61,2.817-3.22,4.025-3.823,3.421s-1.811-2.415-1.811-4.226
			c0-1.811,1.207-32.801,1.207-32.801L178.458,374.704z"/>
		<g>
			<path style="fill:#FFFFFF;stroke:#263238;stroke-miterlimit:10;" d="M156.524,407.908l1.207,16.099c0,0,0.604,1.61,5.433,1.006
				c4.83-0.604,10.867-6.439,10.867-6.439l-1.409-14.891C172.622,403.682,161.957,408.109,156.524,407.908z"/>
			<path style="fill:#FFFFFF;stroke:#263238;stroke-miterlimit:10;" d="M162.561,420.786c0,0-4.628-8.251-7.244-7.043
				c-2.616,1.207-1.207,8.251-1.207,9.86c0,1.61-6.238,12.879-8.854,15.294c-2.616,2.415-6.439,4.025-6.238,6.037
				c0.201,2.012,4.628,2.616,8.049,2.415c3.421-0.201,11.47-2.817,14.69-4.628s16.904-11.47,17.708-12.879
				c0.805-1.409-0.201-6.641-1.61-8.25c-1.409-1.61-4.226-5.836-4.226-6.641c0-0.805,0-1.207-2.012,0.201
				c-2.012,1.409-4.025,3.622-4.83,4.025C165.982,419.579,162.561,420.786,162.561,420.786z"/>
			<path style="fill:#92E3A9;stroke:#263238;stroke-miterlimit:10;" d="M191.941,256.559l-1.409-3.824
				c0,0-30.386-7.043-44.07-15.092c0,0-19.52,19.922-28.374,32.801c-8.854,12.879-19.721,42.079-18.916,45.903
				c0.805,3.823,46.283,52.119,46.283,52.119s6.037,27.77,6.842,33.807c0.805,6.037,7.244,9.458,12.476,9.257
				c5.232-0.201,10.665-4.628,11.269-6.238c0.604-1.61,2.415-39.24,3.22-52.32c0.805-13.08,4.427-38.256,8.854-55.361
				C192.544,280.505,194.959,266.822,191.941,256.559z M144.852,329.024l-9.257-13.08l10.665-19.541L144.852,329.024z"/>
			<path style="fill:none;stroke:#263238;stroke-miterlimit:10;" d="M146.261,296.403c0,0,1.409-26.764,2.817-32.801"/>
			<path style="fill:none;stroke:#263238;stroke-miterlimit:10;" d="M144.852,329.024c0,0-0.201,25.355,0.604,39.441"/>
			<path style="fill:none;stroke:#263238;stroke-miterlimit:10;" d="M135.596,315.944c0,0-4.83-4.025-8.452-4.628"/>
			<path style="fill:none;stroke:#263238;stroke-miterlimit:10;" d="M164.774,256.156c0,0-2.616,17.306-4.025,27.166"/>
			<path style="fill:none;stroke:#263238;stroke-miterlimit:10;" d="M166.988,270.243c0,0,0.402,16.904,0.201,17.708"/>
			<path style="fill:none;stroke:#263238;stroke-miterlimit:10;" d="M145.657,245.692c0,0-9.055,11.068-13.281,17.708"/>
			<line style="fill:none;stroke:#263238;stroke-miterlimit:10;" x1="147.871" y1="246.9" x2="141.633" y2="259.98"/>
		</g>
		<path style="fill:#CCCCCC;stroke:#263238;stroke-miterlimit:10;" d="M191.633,178.103c0,0-19.8,3.762-21.978,5.742
			c-2.178,1.98-27.523,23.365-27.523,23.365l-3.564,21.781l10.494-3.762c0,0-7.92,8.91-7.524,10.494
			c0.396,1.584,8.316,9.108,13.662,12.474c5.346,3.366,31.879,8.91,38.413,9.306c6.534,0.396,5.94-7.128,6.336-8.514
			c0.396-1.386,4.356-16.236,4.356-16.236l30.889-7.722c0,0-5.148-40.591-10.098-47.521c-4.95-6.93-10.692-5.544-15.246-3.96
			C205.295,175.133,191.633,178.103,191.633,178.103z"/>
		<line style="fill:none;stroke:#263238;stroke-miterlimit:10;" x1="206.483" y1="188.399" x2="208.463" y2="227.01"/>
		<g>
			<path style="fill:#FFFFFF;stroke:#263238;stroke-miterlimit:10;" d="M180.544,134.938c0,0-1.188,9.306-1.188,15.048
				c0,5.742,3.168,14.85,6.534,18.414c3.366,3.564,4.752,3.762,7.128,2.97l-3.762,17.424c0,0,13.662-8.514,16.236-10.494
				c2.574-1.98,4.356-4.752,4.356-4.752l2.376-13.068c0,0,2.178-2.97,3.168-5.742c0.99-2.772,1.584-6.534-0.99-8.316
				c-2.574-1.782-4.554-3.366-11.682-11.286c-7.128-7.92-7.326-8.91-7.326-8.91L180.544,134.938z"/>
			<path style="fill:#FFFFFF;stroke:#263238;stroke-miterlimit:10;" d="M210.443,150.382c0,0,4.158-8.316,6.732-3.96
				c2.574,4.356,1.386,7.722-0.396,9.9c-1.782,2.178-5.742,1.584-5.742,1.584"/>
			<polygon style="fill:#263238;stroke:#263238;stroke-linecap:round;stroke-linejoin:round;stroke-miterlimit:10;" points="
				193.019,171.37 199.949,168.4 191.633,178.103 			"/>
			<path style="fill:none;stroke:#263238;stroke-linecap:round;stroke-linejoin:round;stroke-miterlimit:10;" d="M187.87,142.264
				c0,0-1.584,5.544-2.574,7.722c-0.99,2.178-3.168,2.97-1.98,3.564c1.188,0.594,2.178,0.99,4.356,0.792"/>
			<path style="fill:none;stroke:#263238;stroke-linecap:round;stroke-linejoin:round;stroke-miterlimit:10;" d="M185.692,158.698
				c0,0,5.346,0.792,9.504-2.772c0,0-1.584,5.94-4.158,6.93C188.464,163.846,185.692,158.698,185.692,158.698z"/>
			<path style="fill:none;stroke:#263238;stroke-linecap:round;stroke-linejoin:round;stroke-miterlimit:10;" d="M193.019,136.918
				c0,0,2.376-1.782,5.94,0.99"/>
			<path style="fill:none;stroke:#263238;stroke-linecap:round;stroke-linejoin:round;stroke-miterlimit:10;" d="M187.474,137.314
				c0,0-1.98-2.574-4.95-0.396"/>
			<path style="fill:#263238;" d="M196.583,144.046c0,1.203-0.532,2.178-1.188,2.178c-0.656,0-1.188-0.975-1.188-2.178
				s0.532-2.178,1.188-2.178C196.051,141.868,196.583,142.843,196.583,144.046z"/>
			<path style="fill:#263238;" d="M185.494,142.264c0,1.203-0.532,2.178-1.188,2.178s-1.188-0.975-1.188-2.178
				c0-1.203,0.532-2.178,1.188-2.178S185.494,141.061,185.494,142.264z"/>
		</g>
		<line style="fill:none;stroke:#263238;stroke-miterlimit:10;" x1="149.062" y1="225.228" x2="166.288" y2="195.725"/>
		<g>
			<path style="fill:#263238;stroke:#263238;stroke-miterlimit:10;" d="M145.561,154.059l14.596,29.015
				c0.357,0.71,1.098,1.142,1.892,1.104l12.203-0.588c1.41-0.068,2.312-1.53,1.741-2.82l-13.443-30.378
				c-0.365-0.825-1.235-1.305-2.128-1.175l-13.356,1.951C145.71,151.366,144.945,152.834,145.561,154.059z"/>
			<path style="fill:#FFFFFF;stroke:#263238;stroke-miterlimit:10;" d="M146.092,170.182c0,0,7.128,15.642,6.93,16.434
				c-0.198,0.792-29.503,25.345-29.701,27.919c-0.198,2.574,1.782,10.296,4.752,11.484c2.97,1.188,7.128-0.99,8.316-1.98
				c1.188-0.99,22.176-30.295,23.365-31.681c1.188-1.386,1.386-5.346,1.386-5.346s3.366-3.96,6.534-6.336
				c3.168-2.376,1.98-3.762-0.198-2.772c-2.178,0.99-4.752,2.772-4.752,2.772c-1.375,1.018-1.589-1.456,3.318-5.156
				c4.298-3.24,3.377-4.592,3.612-5.14c0.594-1.386-1.782-0.396-1.782-0.396s0.597-1.865-0.195-2.261
				c-0.792-0.396-1.761,0.126-1.761,0.126l-10.518,5.501l-3.366-1.584c0,0,7.326-5.148,9.702-6.138
				c2.376-0.99,3.366-3.762,0.99-3.168C160.348,163.054,147.676,168.004,146.092,170.182z"/>
			<path style="fill:none;stroke:#263238;stroke-miterlimit:10;" d="M167.872,169.984c0,0-10.296,6.534-11.088,7.722
				c-0.792,1.188-0.792,3.564-0.792,3.564"/>
			<path style="fill:none;stroke:#263238;stroke-miterlimit:10;" d="M155.398,173.35c0,0-3.366,1.584-3.564,2.97"/>
		</g>
		<g>
			<path style="fill:#FFFFFF;stroke:#263238;stroke-miterlimit:10;" d="M234.401,220.337c0,0-62.583,11.671-63.791,13.08
				c-1.207,1.409-8.653,23.745-8.452,25.557c0.201,1.811,4.628,8.251,5.635,9.257c1.006,1.006,3.22,1.409,4.628,1.811
				c1.409,0.402,6.641-1.207,5.836-2.817c-0.805-1.61-4.025-1.207-4.025-1.207l-2.012-4.83c0,0,1.811-4.226,1.811-8.25
				c0-4.025,1.006-12.678,1.006-12.678h59.162c0,0,2.616-0.805,2.817-2.214C237.218,236.637,234.401,220.337,234.401,220.337z"/>
			<path style="fill:none;stroke:#263238;stroke-miterlimit:10;" d="M168.195,260.583c0,0,2.214,6.037,2.616,6.842
				c0.402,0.805,1.61,2.616,1.61,2.616"/>
			<line style="fill:none;stroke:#263238;stroke-miterlimit:10;" x1="164.975" y1="261.187" x2="167.793" y2="268.23"/>
		</g>
	</g>
</g>
<g id="Audio_File">
	<g>
		<path style="fill:#263238;stroke:#263238;stroke-linecap:round;stroke-linejoin:round;stroke-miterlimit:10;" d="M570.919,382.269
			H195.413c-4.796,0-8.683-3.888-8.683-8.683V254.003c0-4.796,3.888-8.683,8.683-8.683h375.506c4.796,0,8.683,3.887,8.683,8.683
			v119.583C579.602,378.381,575.715,382.269,570.919,382.269z"/>
		<path style="fill:#FFFFFF;stroke:#263238;stroke-miterlimit:10;" d="M577.121,377.101H201.615c-4.796,0-8.683-3.888-8.683-8.683
			V248.835c0-4.796,3.888-8.683,8.683-8.683h375.506c4.796,0,8.683,3.888,8.683,8.683v119.583
			C585.804,373.213,581.916,377.101,577.121,377.101z"/>
		<g>
			<g>
				<path style="fill:#263238;" d="M324.004,293.418c-1.311,0-2.373,1.062-2.373,2.373v22.542c0,1.311,1.062,2.373,2.373,2.373
					c1.31,0,2.373-1.062,2.373-2.373v-22.542C326.377,294.48,325.314,293.418,324.004,293.418z"/>
				<path style="fill:#263238;" d="M352.967,293.418c-1.31,0-2.373,1.062-2.373,2.373v22.542c0,1.311,1.062,2.373,2.373,2.373
					c1.311,0,2.373-1.062,2.373-2.373v-22.542C355.34,294.48,354.278,293.418,352.967,293.418z"/>
				<path style="fill:#263238;" d="M374.69,293.418c-1.31,0-2.373,1.062-2.373,2.373v22.542c0,1.311,1.062,2.373,2.373,2.373
					c1.311,0,2.373-1.062,2.373-2.373v-22.542C377.063,294.48,376,293.418,374.69,293.418z"/>
				<path style="fill:#263238;" d="M389.172,293.418c-1.31,0-2.373,1.062-2.373,2.373v22.542c0,1.311,1.062,2.373,2.373,2.373
					c1.31,0,2.373-1.062,2.373-2.373v-22.542C391.544,294.48,390.482,293.418,389.172,293.418z"/>
				<path style="fill:#263238;" d="M396.412,293.418c-1.311,0-2.373,1.062-2.373,2.373v22.542c0,1.311,1.062,2.373,2.373,2.373
					c1.31,0,2.373-1.062,2.373-2.373v-22.542C398.785,294.48,397.723,293.418,396.412,293.418z"/>
				<path style="fill:#263238;" d="M432.617,293.418c-1.311,0-2.373,1.062-2.373,2.373v22.542c0,1.311,1.062,2.373,2.373,2.373
					c1.31,0,2.373-1.062,2.373-2.373v-22.542C434.99,294.48,433.927,293.418,432.617,293.418z"/>
				<path style="fill:#263238;" d="M476.062,293.418c-1.311,0-2.373,1.062-2.373,2.373v22.542c0,1.311,1.062,2.373,2.373,2.373
					c1.31,0,2.373-1.062,2.373-2.373v-22.542C478.435,294.48,477.372,293.418,476.062,293.418z"/>
				<path style="fill:#263238;" d="M497.784,293.418c-1.311,0-2.373,1.062-2.373,2.373v22.542c0,1.311,1.062,2.373,2.373,2.373
					c1.31,0,2.373-1.062,2.373-2.373v-22.542C500.157,294.48,499.095,293.418,497.784,293.418z"/>
				<path style="fill:#263238;" d="M505.025,293.418c-1.31,0-2.373,1.062-2.373,2.373v22.542c0,1.311,1.062,2.373,2.373,2.373
					c1.311,0,2.373-1.062,2.373-2.373v-22.542C507.398,294.48,506.336,293.418,505.025,293.418z"/>
				<path style="fill:#263238;" d="M533.989,293.418c-1.31,0-2.373,1.062-2.373,2.373v22.542c0,1.311,1.062,2.373,2.373,2.373
					s2.373-1.062,2.373-2.373v-22.542C536.361,294.48,535.299,293.418,533.989,293.418z"/>
				<path style="fill:#263238;" d="M541.229,293.418c-1.31,0-2.373,1.062-2.373,2.373v22.542c0,1.311,1.062,2.373,2.373,2.373
					c1.31,0,2.373-1.062,2.373-2.373v-22.542C543.602,294.48,542.54,293.418,541.229,293.418z"/>
				<path style="fill:#263238;" d="M548.47,293.418c-1.31,0-2.373,1.062-2.373,2.373v22.542c0,1.311,1.062,2.373,2.373,2.373
					s2.373-1.062,2.373-2.373v-22.542C550.843,294.48,549.781,293.418,548.47,293.418z"/>
				<path style="fill:#263238;" d="M555.711,293.418c-1.31,0-2.373,1.062-2.373,2.373v22.542c0,1.311,1.062,2.373,2.373,2.373
					c1.31,0,2.373-1.062,2.373-2.373v-22.542C558.084,294.48,557.022,293.418,555.711,293.418z"/>
				<path style="fill:#263238;" d="M302.492,293.418c-1.311,0-2.373,1.062-2.373,2.373v22.542c0,1.311,1.062,2.373,2.373,2.373
					c1.31,0,2.373-1.062,2.373-2.373v-22.542C304.864,294.48,303.802,293.418,302.492,293.418z"/>
				<path style="fill:#263238;" d="M309.732,293.418c-1.31,0-2.373,1.062-2.373,2.373v22.542c0,1.311,1.062,2.373,2.373,2.373
					c1.311,0,2.373-1.062,2.373-2.373v-22.542C312.105,294.48,311.043,293.418,309.732,293.418z"/>
				<path style="fill:#263238;" d="M316.973,293.418c-1.31,0-2.373,1.062-2.373,2.373v22.542c0,1.311,1.062,2.373,2.373,2.373
					c1.31,0,2.373-1.062,2.373-2.373v-22.542C319.346,294.48,318.284,293.418,316.973,293.418z"/>
				<path style="fill:#263238;" d="M439.857,293.418c-1.31,0-2.373,1.062-2.373,2.373v22.542c0,1.311,1.062,2.373,2.373,2.373
					c1.311,0,2.373-1.062,2.373-2.373v-22.542C442.23,294.48,441.168,293.418,439.857,293.418z"/>
				<path style="fill:#263238;" d="M403.653,293.418c-1.31,0-2.373,1.062-2.373,2.373v22.542c0,1.311,1.062,2.373,2.373,2.373
					c1.311,0,2.373-1.062,2.373-2.373v-22.542C406.026,294.48,404.964,293.418,403.653,293.418z"/>
				<path style="fill:#263238;" d="M331.245,283.418L331.245,283.418c-1.31,0-2.373,1.062-2.373,2.373v42.542
					c0,1.311,1.062,2.373,2.373,2.373h0c1.31,0,2.373-1.062,2.373-2.373v-42.542C333.618,284.48,332.555,283.418,331.245,283.418z"
					/>
				<path style="fill:#263238;" d="M345.727,283.418c-1.311,0-2.373,1.062-2.373,2.373v42.542c0,1.311,1.062,2.373,2.373,2.373
					c1.31,0,2.373-1.062,2.373-2.373v-42.542C348.099,284.48,347.037,283.418,345.727,283.418z"/>
				<path style="fill:#263238;" d="M367.449,283.418c-1.311,0-2.373,1.062-2.373,2.373v42.542c0,1.311,1.062,2.373,2.373,2.373
					c1.31,0,2.373-1.062,2.373-2.373v-42.542C369.822,284.48,368.759,283.418,367.449,283.418z"/>
				<path style="fill:#263238;" d="M381.931,283.418c-1.31,0-2.373,1.062-2.373,2.373v42.542c0,1.311,1.062,2.373,2.373,2.373
					c1.31,0,2.373-1.062,2.373-2.373v-42.542C384.303,284.48,383.241,283.418,381.931,283.418z"/>
				<path style="fill:#263238;" d="M410.894,283.418c-1.311,0-2.373,1.062-2.373,2.373v42.542c0,1.311,1.062,2.373,2.373,2.373
					c1.31,0,2.373-1.062,2.373-2.373v-42.542C413.267,284.48,412.205,283.418,410.894,283.418z"/>
				<path style="fill:#263238;" d="M447.098,283.418c-1.31,0-2.373,1.062-2.373,2.373v42.542c0,1.311,1.062,2.373,2.373,2.373
					c1.31,0,2.373-1.062,2.373-2.373v-42.542C449.471,284.48,448.409,283.418,447.098,283.418z"/>
				<path style="fill:#263238;" d="M454.339,283.418L454.339,283.418c-1.311,0-2.373,1.062-2.373,2.373v42.542
					c0,1.311,1.062,2.373,2.373,2.373h0c1.31,0,2.373-1.062,2.373-2.373v-42.542C456.712,284.48,455.65,283.418,454.339,283.418z"/>
				<path style="fill:#263238;" d="M461.58,283.418c-1.31,0-2.373,1.062-2.373,2.373v42.542c0,1.311,1.062,2.373,2.373,2.373
					c1.31,0,2.373-1.062,2.373-2.373v-42.542C463.953,284.48,462.891,283.418,461.58,283.418z"/>
				<path style="fill:#263238;" d="M468.821,283.418c-1.31,0-2.373,1.062-2.373,2.373v42.542c0,1.311,1.062,2.373,2.373,2.373
					c1.311,0,2.373-1.062,2.373-2.373v-42.542C471.194,284.48,470.131,283.418,468.821,283.418z"/>
				<path style="fill:#263238;" d="M512.266,283.418L512.266,283.418c-1.311,0-2.373,1.062-2.373,2.373v42.542
					c0,1.311,1.062,2.373,2.373,2.373h0c1.31,0,2.373-1.062,2.373-2.373v-42.542C514.639,284.48,513.576,283.418,512.266,283.418z"
					/>
				<path style="fill:#263238;" d="M526.748,283.418c-1.31,0-2.373,1.062-2.373,2.373v42.542c0,1.311,1.062,2.373,2.373,2.373
					c1.31,0,2.373-1.062,2.373-2.373v-42.542C529.121,284.48,528.058,283.418,526.748,283.418z"/>
				<path style="fill:#263238;" d="M338.486,273.418c-1.31,0-2.373,1.062-2.373,2.373v62.542c0,1.311,1.062,2.373,2.373,2.373
					c1.31,0,2.373-1.062,2.373-2.373v-62.542C340.858,274.48,339.796,273.418,338.486,273.418z"/>
				<path style="fill:#263238;" d="M360.208,273.418c-1.31,0-2.373,1.062-2.373,2.373v62.542c0,1.311,1.062,2.373,2.373,2.373
					c1.31,0,2.373-1.062,2.373-2.373v-62.542C362.581,274.48,361.519,273.418,360.208,273.418z"/>
				<path style="fill:#263238;" d="M418.135,273.418c-1.31,0-2.373,1.062-2.373,2.373v62.542c0,1.311,1.062,2.373,2.373,2.373
					c1.311,0,2.373-1.062,2.373-2.373v-62.542C420.508,274.48,419.445,273.418,418.135,273.418z"/>
				<path style="fill:#263238;" d="M425.376,273.418c-1.31,0-2.373,1.062-2.373,2.373v62.542c0,1.311,1.062,2.373,2.373,2.373
					s2.373-1.062,2.373-2.373v-62.542C427.749,274.48,426.686,273.418,425.376,273.418z"/>
				<path style="fill:#263238;" d="M483.303,273.418c-1.31,0-2.373,1.062-2.373,2.373v62.542c0,1.311,1.062,2.373,2.373,2.373
					c1.311,0,2.373-1.062,2.373-2.373v-62.542C485.675,274.48,484.613,273.418,483.303,273.418z"/>
				<path style="fill:#263238;" d="M490.543,273.418c-1.31,0-2.373,1.062-2.373,2.373v62.542c0,1.311,1.062,2.373,2.373,2.373
					c1.311,0,2.373-1.062,2.373-2.373v-62.542C492.916,274.48,491.854,273.418,490.543,273.418z"/>
				<path style="fill:#263238;" d="M519.507,273.418c-1.31,0-2.373,1.062-2.373,2.373v62.542c0,1.311,1.062,2.373,2.373,2.373
					c1.31,0,2.373-1.062,2.373-2.373v-62.542C521.88,274.48,520.817,273.418,519.507,273.418z"/>
			</g>
			<g>
				
					<ellipse transform="matrix(0.7071 -0.7071 0.7071 0.7071 -146.3806 266.3067)" style="fill:#263238;" cx="248.27" cy="309.85" rx="35.521" ry="35.521"/>
				<polygon style="fill:#92E3A9;stroke:#263238;stroke-miterlimit:10;" points="274.591,309.85 232.119,285.329 232.119,334.371 
									"/>
			</g>
		</g>
	</g>
</g>
</svg>
